<svg xmlns="http://www.w3.org/2000/svg" viewBox="0 0 43.6 43.6">
  <defs>
    <style>
      .cls-1 {
        fill: #fff;
      }
    </style>
  </defs>
  <path id="Path_4249" data-name="Path 4249" class="cls-1" d="M1425.4,1524.1a21.8,21.8,0,1,0,21.8,21.8A21.851,21.851,0,0,0,1425.4,1524.1Zm0,39.3a17.6,17.6,0,1,1,17.6-17.6A17.626,17.626,0,0,1,1425.4,1563.4Zm-7-19a2.8,2.8,0,0,0,2.8-2.8,2.862,2.862,0,0,0-2.8-2.8,2.8,2.8,0,0,0,0,5.6Zm14,0a2.8,2.8,0,0,0,2.8-2.8,2.862,2.862,0,0,0-2.8-2.8,2.8,2.8,0,0,0-2.8,2.8A2.862,2.862,0,0,0,1432.4,1544.4Zm.4,6.4a9.573,9.573,0,0,1-14.8,0,2.132,2.132,0,1,0-3.3,2.7,13.736,13.736,0,0,0,21.2,0,2.191,2.191,0,0,0-.3-3A1.957,1.957,0,0,0,1432.8,1550.8Z" transform="translate(-1403.6 -1524.1)"/>
</svg>
