<svg xmlns="http://www.w3.org/2000/svg" viewBox="0 0 18 14">
  <defs>
    <style>
      .cls-1 {
        fill: #fff;
      }
    </style>
  </defs>
  <path id="Path_4248" data-name="Path 4248" class="cls-1" d="M1413.6,330.8c0-2.8-2.9-5-6.5-5s-6.5,2.3-6.5,5a4.005,4.005,0,0,0,1.2,2.9,7.807,7.807,0,0,1-1.1,1.7.188.188,0,0,0,0,.3.215.215,0,0,0,.2.2,5.466,5.466,0,0,0,2.8-.8,7.845,7.845,0,0,0,3.5.8C1410.7,335.9,1413.6,333.6,1413.6,330.8Zm3.8,7a4,4,0,0,0,1.2-2.9c0-2.1-1.7-3.9-4.1-4.7v.6c0,3.3-3.4,6-7.5,6a3.4,3.4,0,0,1-1-.1,6.8,6.8,0,0,0,6,3.1,7.845,7.845,0,0,0,3.5-.8,5.465,5.465,0,0,0,2.8.8.215.215,0,0,0,.2-.2v-.3A5.236,5.236,0,0,1,1417.4,337.8Z" transform="translate(-1400.6 -325.8)"/>
</svg>
