<svg xmlns="http://www.w3.org/2000/svg" viewBox="0 0 83.638 69.513">
  <defs>
    <style>
      .cls-1 {
        fill: #1d71b8;
      }
    </style>
  </defs>
  <g id="Group_352" data-name="Group 352" transform="translate(-1573.9 -117.3)">
    <path id="Path_4229" data-name="Path 4229" class="cls-1" d="M1599.9,159.9c.2-2,1.2-3.1,3.1-3.1a2.7,2.7,0,0,1,2.8,2.9,2.662,2.662,0,0,1-3,2.9A2.8,2.8,0,0,1,1599.9,159.9Z"/>
    <path id="Path_4230" data-name="Path 4230" class="cls-1" d="M1627.6,159.8c.3-1.8,1.2-3,3.1-3a2.76,2.76,0,0,1,2.8,3.1,2.651,2.651,0,0,1-2.8,2.7C1628.8,162.7,1627.9,161.5,1627.6,159.8Z"/>
    <path id="Path_4231" data-name="Path 4231" class="cls-1" d="M1616.3,154.7c1-.1,3-1.3,2.6.7-.3,1.8-.6,4.9-2.7,5.1-2.5.2-2.4-3.1-2.7-4.8C1613.2,153.2,1615.3,154.7,1616.3,154.7Z"/>
    <g id="Group_351" data-name="Group 351">
      <path id="Path_4232" data-name="Path 4232" class="cls-1" d="M1652.1,137.7c-.5,2-1.3,3.9,1.9,4.3a1.122,1.122,0,1,1-.4,2.2c-3.6-.8-4,1.9-4.7,4.2-.4,1.4-.9,2.8-1.2,4.3-.5,2.2-1.4,3.6-4,3.3-.9-.1-2.2-.1-2.2,1.2s1.2,1.3,2.1,1.5c.7.2,1.6,0,1.4,1.2-.2.7-.7.9-1.4.9-1-.1-2.3-1.2-2.8.4-.6,1.6,1.4,1.6,2.9,3.6h-52.6c4.6-5.1-2.2-2-2.3-3.9.1-.7.8-.6,1.3-.8.9-.3,2.2-.4,2-1.7s-1.5-1.2-2.4-.9c-2.2.6-3.2-.5-3.7-2.5a28.523,28.523,0,0,0-1.2-3.1c-1.2-3.4-1.4-7.8-7.7-6.5,5.6-2.4,3.5-6,2.6-9.4a129.986,129.986,0,0,1-3.6-18.6h-2.2a147.934,147.934,0,0,0,3.9,20.9c.4,1.5,1,3-1.2,4a2.913,2.913,0,0,0-1.5,3.8,2.988,2.988,0,0,0,3.4,2.2c1.1-.1,2.2-.2,2.7,1.2.8,2.2,1.7,4.4,2.4,6.6.3,1,.6,1.9-1,2.1-1.2.2-3.5-.8-3.3,1,.1,1.8,2.5.7,3.8,1h.4a2.235,2.235,0,0,1,2.5,2.2c.2,1.4-1.2,1.3-2,1.6a22.678,22.678,0,0,1-2.5.6c-.6.2-1.3.4-1.3,1.1.1,1,1,1,1.7.9,1.8-.4,3.5-.8,5.9-1.4-3,5.8-2,9.5,2.9,13,1.6,1.2,3.3,2.1,4.3,4.2,2.7,5.6,4.7,5.8,8.8,1a13.43,13.43,0,0,0,1.1-1.4c1.2-1.9,2.6-2.7,5.2-3,2.2-.2,4.2.3,6.4.1,5.2-.6,10.6-1.9,14,4.5,1.9,3.6,4.3,3.3,6.8-.1,1.1-1.5,1.7-3.9,3-4.5,4.1-1.6,4.9-5.4,6.7-8.6.9-1.7,1.3-3.2-.7-4.4a1.068,1.068,0,0,1-.6-1.5c.3-.7.9-.7,1.6-.7.7.1,1.5.2,2.2.3,1,0,2.6.8,2.8-.7.2-1.3-1.4-.9-2.3-1.2-.9-.4-2.5.1-2.6-1.5,0-1.5,1-2.4,2.6-2.6.9-.2,2.3.1,2.5-1.1.3-1.6-1.3-1-2.1-1.1-.5-.1-1.1-.3-.9-.9.6-2.4,1.3-4.7,2-7.1.5-1.6,2-1,3.1-1.3a3.3,3.3,0,0,0,2.8-2.6c.3-1.4.2-3-1.2-3.6-2.5-1-1.9-2.7-1.4-4.5a108.115,108.115,0,0,0,2.6-18.6H1655A93.824,93.824,0,0,1,1652.1,137.7Zm-51.9,46.1c-2.5.8-2.2-1.8-3.2-3.3,2,.6,4.2-2.6,5.6.1C1603.2,181.8,1601.4,183.4,1600.2,183.8Zm33.7-.5c-1.5.1-1.9-1.6-2.6-2.7a2.449,2.449,0,0,1,2.6-1.6c.9,0,2.5.1,2.4,1.4S1635.4,183.2,1633.9,183.3Zm11.6-14.5c-1.6,1.1-1,3.2-2.1,4.2-1.2,1.1-1.2,5.3-4.6,2.2-1.7,3.5-5.5-1.5-7.3,1.7-2.1-3.3-5.6,1.8-7.8-1.3-.5-.8-1.4-.3-1.9.3-1,1.1-1.8,1-2.7-.1-.7-.9-1.5-.8-2.1.1-1,1.3-2,1.7-3.3.2a1.309,1.309,0,0,0-2.2.1c-1,1.2-2.1,1.1-3.2.2a1.715,1.715,0,0,0-2.6.2c-1.1,1.3-2.2,1.4-3.3,0a3.97,3.97,0,0,0-1.2-.7c-1.9,2.7-4.6-.5-6.9,1-1.5,1-5.2-2.5-5-4.3.4-.8-.1-1.3-.5-2-.9-1.5-.8-2.5,1.3-1.6.9.4,1.4.2,1.8-.6.7-1.7,1.5-1.2,2.5-.3.7.6,1.5,1.1,2.2.1,1-1.4,1.9-1.2,3-.2a1.647,1.647,0,0,0,2.6-.1c.8-.8,1.6-1.2,2.6-.3,1.2,1.1,2.1,1,3-.4a2.057,2.057,0,0,1,.9-.5c2.2,2.5,5.5.7,7.4.5,2.8-.3,5.8,2.3,8.4-.4a1.418,1.418,0,0,1,2,0c1.4,1.3,2.6,1.4,4.2.2.7-.5,1.4-.1,1.9.5,1.1,1.6,2.1,1.4,3.2-.1.1-.2.4-.5.5-.5,2.9.7,5.9-.3,8.8.7C1645.4,167.9,1645.9,168.6,1645.5,168.8Z"/>
    </g>
  </g>
</svg>
