<svg xmlns="http://www.w3.org/2000/svg" viewBox="0 0 112.374 136.26">
  <defs>
    <style>
      .cls-1 {
        fill: #1d71b8;
      }
    </style>
  </defs>
  <g id="Group_371" data-name="Group 371" transform="translate(-1333.152 -1445.962)">
    <path id="Path_4236" data-name="Path 4236" class="cls-1" d="M1343.6,1475.2c1.8-1.5,3.7-.9,5.4-.9s3-.5,3.3-2.3c.3-2-1.6-1.7-2.7-2.2-1.4-.6-3,.1-4.3-1.2.6-2.3,2.6-1.5,3.6-1.2,4.9,1.9,6.3-1.3,7.8-4.8,2.1-5,4.3-10,8.1-14.2,2.9-3.1,5.8-3.2,8.7,0,2.1,2.3,2.8,6.5,6.2,6.8a96.767,96.767,0,0,0,19.4-.2c2.7-.3,4.3-3.9,6.1-6.2,3.1-3.9,6.1-3.7,9.1.1a44.429,44.429,0,0,1,8,14.2c1.3,4,2.9,6.1,7.4,4.3a4.019,4.019,0,0,1,3.9.5c-.7,2-2.6,1.2-3.8,1.7-1.2.6-3.4.1-3.1,2.3s2.1,2.2,3.8,2.2c1.5,0,3.3-.6,4.9,1.1-1.8,1.8-4.2.4-6.4,1.4.2,4.1,2.2,7.7,3.7,11.4,6.2,15.6,11.8,31.4,12.7,48.4.5,9.9-.3,19.5-5.9,28.3-2.8,4.4-6.8,7.2-11.1,9.6-3.2,1.8-7.9,1.1-9.5,6.1-.5,1.5-4,1.6-5.6-.5-1.4-1.9-3-1.8-4.9-1.6-12.3,1.2-24.6.6-37,.5-2.3,0-4.2-.2-6.3,1.8-2.4,2.4-5.6,2.4-6.9-1.8-.4-1.4-.8-2.4-2.4-2.7-14.8-3.3-20.7-14-22.2-27.7-1.6-15.3,1.2-30.1,6.6-44.5,2.9-7.9,4.8-16.2,8.8-23.8,1.4-2.7.8-4.4-2.8-4C1345.6,1476.5,1344.5,1476.7,1343.6,1475.2Zm11-1.8c.5.7.7,1.2,1.1,1.4,1.1.6,3,.6,2.5,2.4-.5,1.6-2,.7-3,.5-2.5-.6-2.7,1.5-3.2,2.9-3.5,9.1-7.2,18.2-10,27.6-4.2,13.6-7.5,27.3-5.2,41.6,2.1,13.1,8.7,22,22.4,24.4,1,.2,2.1.3,2.1,1.6-.2,5.5,1.9,3.4,4,1.2.9-1,2.1-.8,3.3-.8,14.5.2,28.9.6,43.4-.3,2.6-.2,5.7,3.6,6.8-1.9,0-.1,1.6.2,2.3.1a22.817,22.817,0,0,0,15.4-9.1c5.8-8.3,7.7-18,6.8-28-1.8-20.1-9.3-38.6-16.3-57.3-.4-1.2-.8-2.1-2.4-2.1-1.2.1-2.8,1.4-3.6-.3-1-2.2,2.7-1.6,2.5-3.9-3.1.1-5.1-.7-2-4,.9-1-.2-2.1-.5-3.2-1.1-3.5-3.2-6.5-5-9.7-5.2-9.4-5.5-9.2-12.4-.8-1.5,1.8-3.7,8.6-8.8,3.1-3.3,2.9-7.7-.9-9.7.4-2.8,1.9-3.2.8-5.6-.2-3.2-1.4-4.3-3.9-6-6.2-3.2-4.4-5.4-4.4-8.3,0-2.7,4.2-5.3,8.4-6.9,13.2-.3,1.1-1.5,2.4-.7,3.2C1362,1473.8,1356.7,1472.6,1354.6,1473.4Z"/>
    <path id="Path_4237" data-name="Path 4237" class="cls-1" d="M1389.5,1466.9c7.6,0,15.3.1,22.9-.1,3.6-.1,4.6,1.3,4.4,4.7-.5,7.2-3.5,10.9-9.8,11.7-6.4.8-10.6-2.1-12.4-9.4-.8-3-1.7-4.5-5.2-4.5-3.6,0-4.2,1.6-4.9,4.6-1.6,6.9-6.2,10.2-12.5,9.3-5.9-.7-10-6.2-10.1-13,0-3.2,1.8-3.4,4.2-3.4C1373.9,1466.9,1381.7,1466.9,1389.5,1466.9Z"/>
    <path id="Path_4238" data-name="Path 4238" class="cls-1" d="M1391.4,1518.6a11.657,11.657,0,0,0,1.1-1.6c.8-1.6,1.4-4.3,3.4-3.3,2.2,1.1.5,3.8-.5,5.2-3,4.3-6.2,3.3-11.5-.6a14.63,14.63,0,0,1-2.1-2.8c-.5-.7-1.1-1.5-.4-2.2.9-1,1.8-.2,2.5.5,1.1,1,2.3,3.4,3.9,1.6,1.4-1.7-.6-3.1-2-4.3-1.1-1-3.6-1.9-2.3-3.7,1.1-1.6,2.9.4,4.4.7C1396,1509.3,1390.1,1514.7,1391.4,1518.6Z"/>
    <path id="Path_4239" data-name="Path 4239" class="cls-1" d="M1390.9,1480.2a2.984,2.984,0,0,0-2.9,0c-1.3.3-2.8.7-3.5-.8-.8-1.8,1.5-1.8,1.8-2.6,3.3-7.2,5.3,0,7.7.6.8.2,1,1.4.4,2.1C1393.5,1480.7,1392.1,1480.4,1390.9,1480.2Z"/>
  </g>
</svg>
