<?xml version="1.0" encoding="UTF-8" standalone="no"?>
<svg
   xmlns:dc="http://purl.org/dc/elements/1.1/"
   xmlns:cc="http://creativecommons.org/ns#"
   xmlns:rdf="http://www.w3.org/1999/02/22-rdf-syntax-ns#"
   xmlns:svg="http://www.w3.org/2000/svg"
   xmlns="http://www.w3.org/2000/svg"
   xmlns:sodipodi="http://sodipodi.sourceforge.net/DTD/sodipodi-0.dtd"
   xmlns:inkscape="http://www.inkscape.org/namespaces/inkscape"
   viewBox="0 0 209.4 41.37"
   version="1.1"
   id="svg3789"
   sodipodi:docname="Group 431.svg"
   inkscape:version="0.92.4 (5da689c313, 2019-01-14)">
  <metadata
     id="metadata3793">
    <rdf:RDF>
      <cc:Work
         rdf:about="">
        <dc:format>image/svg+xml</dc:format>
        <dc:type
           rdf:resource="http://purl.org/dc/dcmitype/StillImage" />
        <dc:title></dc:title>
      </cc:Work>
    </rdf:RDF>
  </metadata>
  <sodipodi:namedview
     pagecolor="#ffffff"
     bordercolor="#666666"
     borderopacity="1"
     objecttolerance="10"
     gridtolerance="10"
     guidetolerance="10"
     inkscape:pageopacity="0"
     inkscape:pageshadow="2"
     inkscape:window-width="1680"
     inkscape:window-height="987"
     id="namedview3791"
     showgrid="false"
     inkscape:pagecheckerboard="true"
     showborder="false"
     inkscape:zoom="7.4259792"
     inkscape:cx="104.7"
     inkscape:cy="20.684999"
     inkscape:window-x="-8"
     inkscape:window-y="-8"
     inkscape:window-maximized="1"
     inkscape:current-layer="svg3789" />
  <defs
     id="defs3756">
    <style
       id="style3754">
      .cls-1 {
        fill: #fff;
      }

      .cls-2 {
        fill: #30aae2;
      }
    </style>
  </defs>
  <g
     id="Group_431"
     data-name="Group 431"
     transform="translate(-399.5 -24.83)">
    <g
       id="Group_429"
       data-name="Group 429">
      <path
         id="Path_4286"
         data-name="Path 4286"
         class="cls-1"
         d="M439.8,29.3v-4l-.4-.1c-.4-.1-9.6-1.3-15.8,3.3a14.718,14.718,0,0,0-2.2,2.2l-.1.1v5.9h0c-.3.3-6,8.1-6,11.5a6.4,6.4,0,1,0,12.8,0c0-3-4.6-9.6-5.7-11.2h0V31.1a16.939,16.939,0,0,1,1.9-1.9c5.1-3.8,12.7-3.3,14.6-3.2l.3,29.9c-2.5-.7-10.9-2.6-17.4,2.1-6.5-4.7-14.9-2.8-17.4-2.1l.3-29.9c1.9-.2,9.5-.6,14.6,3.2l.6-.9c-6.2-4.6-15.4-3.3-15.8-3.3l-.4.1v4h-4.2V61.9H417a4.67,4.67,0,0,0,4.6,4.3,4.6,4.6,0,0,0,4.6-4.3h17.9V29.3ZM426.9,48.4a5.3,5.3,0,1,1-10.6,0c0-2.3,3.5-7.7,5.3-10.2C423.4,40.7,426.9,46.1,426.9,48.4Zm16.2,12.8H425.2v.7a3.7,3.7,0,0,1-7.4,0v-.7H400V30.3h3.3l-.2,27.3.7-.3c.1,0,10.4-3.6,17.6,2l.2.2.2-.2c7.1-5.6,17.5-2.1,17.6-2l.7.3-.2-27.3h3.3l-.1,30.9Z" />
      <path
         id="Path_4287"
         data-name="Path 4287"
         class="cls-2"
         d="M426.2,48.4a4.6,4.6,0,0,1-9.2,0c0-2,3.1-6.7,4.6-8.9C423.2,41.7,426.2,46.4,426.2,48.4Z" />
    </g>
    <g
       id="Group_430"
       data-name="Group 430">
      <path
         id="Path_4288"
         data-name="Path 4288"
         class="cls-1"
         d="M456,34.2h5a3.635,3.635,0,0,0-3.5-2.8,4.816,4.816,0,0,0-3.2,1.3l-1.5-1.9a6.593,6.593,0,0,1,4.7-1.9,6.3,6.3,0,0,1,6.4,6.3,6.212,6.212,0,0,1-6.3,6.3,6.335,6.335,0,0,1-5.1-2l1.7-1.8a4.6,4.6,0,0,0,3.4,1.4,3.54,3.54,0,0,0,3.5-2.9h-5A12.122,12.122,0,0,1,456,34.2Z" />
      <path
         id="Path_4289"
         data-name="Path 4289"
         class="cls-1"
         d="M466.3,29.3H469v4.8h5V29.3h2.7V41.5H474V36.6h-5v4.9h-2.7Z" />
      <path
         id="Path_4290"
         data-name="Path 4290"
         class="cls-1"
         d="M488.6,41.5h-9.1V29.3h2.7v9.8H487V29.3h2.6v9.8H491l-.3,5h-2.2V41.5Z" />
      <path
         id="Path_4291"
         data-name="Path 4291"
         class="cls-1"
         d="M503.6,41.5H501v-8l-5.3,8h-2.5V29.3h2.6v8l5.4-8h2.5C503.6,29.3,503.6,41.5,503.6,41.5Z" />
      <path
         id="Path_4292"
         data-name="Path 4292"
         class="cls-1"
         d="M506.5,29.3h2.7v5.3l5-5.3h3.2l-5,5.2,5.2,7h-3.2l-3.8-5.2-1.4,1.5v3.7h-2.7V29.3Z" />
      <path
         id="Path_4293"
         data-name="Path 4293"
         class="cls-1"
         d="M529.6,29.3V41.5h-2.7V31.7h-3.5v.9c0,7.2-1.2,9-4,9a5.9,5.9,0,0,1-1.4-.2l.2-2.2c.1,0,.2.1.4.1,1.4,0,2.3-.9,2.3-7.5V29.3Z" />
      <path
         id="Path_4294"
         data-name="Path 4294"
         class="cls-1"
         d="M532,35.4a6.5,6.5,0,1,1,6.5,6.3A6.321,6.321,0,0,1,532,35.4Zm10.2,0a3.738,3.738,0,0,0-3.7-3.9,3.68,3.68,0,0,0-3.7,3.9,3.705,3.705,0,1,0,7.4,0Z" />
      <path
         id="Path_4295"
         data-name="Path 4295"
         class="cls-1"
         d="M547.4,29.3h10.2V41.5h-2.7V31.7H550v9.8h-2.7l.1-12.2Z" />
      <path
         id="Path_4296"
         data-name="Path 4296"
         class="cls-1"
         d="M560.5,29.3h9.2v2.4h-6.6v2.5h5.8v2.4h-5.8v2.6h6.6v2.4h-9.3l.1-12.3Z" />
      <path
         id="Path_4297"
         data-name="Path 4297"
         class="cls-1"
         d="M570.9,39.1h1.2c.9-2.1,1.3-4.2,1.3-8.4V29.3h8.9v9.8h1.5l-.3,5h-2.3V41.6h-7.7l-.2,2.5h-2.4v-5Zm5.1-7.4V33a14.789,14.789,0,0,1-1.1,6.1h4.7V31.7Z" />
      <path
         id="Path_4298"
         data-name="Path 4298"
         class="cls-1"
         d="M596.2,41.5h-2.6v-8l-5.3,8h-2.5V29.3h2.6v8l5.4-8h2.5V41.5Z" />
      <path
         id="Path_4299"
         data-name="Path 4299"
         class="cls-1"
         d="M608.8,41.5h-2.7V37.6H604l-2.6,3.9h-3.1l3-4.4a3.857,3.857,0,0,1-2.6-3.8c0-2.5,1.8-4,4.6-4h5.6l-.1,12.2Zm-2.7-6.3V31.7h-2.7c-1.3,0-2.1.6-2.1,1.8a1.775,1.775,0,0,0,2,1.7Z" />
      <path
         id="Path_4300"
         data-name="Path 4300"
         class="cls-1"
         d="M453.5,49H458a4.1,4.1,0,0,1,2.8.9,2.413,2.413,0,0,1,.7,1.7,2.346,2.346,0,0,1-1.7,2.4c1.3.4,2.3,1.1,2.3,2.6,0,1.8-1.5,2.9-3.9,2.9h-4.7V49Zm4.3,4.8c1.4,0,2.4-.7,2.4-1.9,0-1-.8-1.7-2.4-1.7h-3.2v3.6h3.2Zm.4,4.8c1.6,0,2.6-.7,2.6-1.9s-1-1.8-2.8-1.8h-3.4v3.7Z" />
      <path
         id="Path_4301"
         data-name="Path 4301"
         class="cls-1"
         d="M463.9,54.3a5.4,5.4,0,0,1,5.4-5.5,5.338,5.338,0,0,1,5.4,5.5,5.4,5.4,0,0,1-5.4,5.5A5.278,5.278,0,0,1,463.9,54.3Zm9.6,0a4.271,4.271,0,0,0-4.2-4.4,4.132,4.132,0,0,0-4.1,4.4,4.271,4.271,0,0,0,4.2,4.4A4.19,4.19,0,0,0,473.5,54.3Z" />
      <path
         id="Path_4302"
         data-name="Path 4302"
         class="cls-1"
         d="M475.6,58.6h1.1c1-1.6,1.6-4.2,1.6-7.7V49h6.9v9.5h1.4l-.2,3.5h-1V59.6h-8.6l-.2,2.4h-1S475.6,58.6,475.6,58.6Zm8.4,0V50.2h-4.6v1.4a15.983,15.983,0,0,1-1.4,7Z" />
      <path
         id="Path_4303"
         data-name="Path 4303"
         class="cls-1"
         d="M487.8,54.3a5.4,5.4,0,0,1,5.4-5.5,5.338,5.338,0,0,1,5.4,5.5,5.4,5.4,0,0,1-5.4,5.5A5.338,5.338,0,0,1,487.8,54.3Zm9.6,0a4.271,4.271,0,0,0-4.2-4.4,4.132,4.132,0,0,0-4.1,4.4,4.271,4.271,0,0,0,4.2,4.4A4.19,4.19,0,0,0,497.4,54.3Z" />
      <path
         id="Path_4304"
         data-name="Path 4304"
         class="cls-1"
         d="M501.1,49h8.3V59.6h-1.2V50.1h-5.9v9.5h-1.2V49Z" />
      <path
         id="Path_4305"
         data-name="Path 4305"
         class="cls-1"
         d="M512,54.3a5.4,5.4,0,0,1,5.4-5.5,5.338,5.338,0,0,1,5.4,5.5,5.4,5.4,0,0,1-5.4,5.5A5.278,5.278,0,0,1,512,54.3Zm9.5,0a4.271,4.271,0,0,0-4.2-4.4,4.132,4.132,0,0,0-4.1,4.4,4.271,4.271,0,0,0,4.2,4.4A4.19,4.19,0,0,0,521.5,54.3Z" />
      <path
         id="Path_4306"
         data-name="Path 4306"
         class="cls-1"
         d="M523.6,58.6h1.1c1-1.6,1.6-4.2,1.6-7.7V49h6.9v9.5h1.4l-.2,3.5h-1V59.6h-8.6l-.2,2.4h-1V58.6Zm8.4,0V50.2h-4.6v1.4a15.982,15.982,0,0,1-1.4,7Z" />
      <path
         id="Path_4307"
         data-name="Path 4307"
         class="cls-1"
         d="M536.4,49h6.8v1.1h-5.6v9.5h-1.2Z" />
      <path
         id="Path_4308"
         data-name="Path 4308"
         class="cls-1"
         d="M544,54.3a5.4,5.4,0,0,1,5.4-5.5,5.338,5.338,0,0,1,5.4,5.5,5.4,5.4,0,0,1-5.4,5.5A5.338,5.338,0,0,1,544,54.3Zm9.5,0a4.271,4.271,0,0,0-4.2-4.4,4.132,4.132,0,0,0-4.1,4.4,4.271,4.271,0,0,0,4.2,4.4A4.19,4.19,0,0,0,553.5,54.3Z" />
      <path
         id="Path_4309"
         data-name="Path 4309"
         class="cls-1"
         d="M559.4,50.1h-3.6V49h8.3v1.1h-3.5v9.5h-1.2V50.1Z" />
      <path
         id="Path_4310"
         data-name="Path 4310"
         class="cls-1"
         d="M565.1,54.3a5.4,5.4,0,0,1,5.4-5.5,5.338,5.338,0,0,1,5.4,5.5,5.4,5.4,0,0,1-5.4,5.5A5.338,5.338,0,0,1,565.1,54.3Zm9.6,0a4.271,4.271,0,0,0-4.2-4.4,4.132,4.132,0,0,0-4.1,4.4,4.157,4.157,0,1,0,8.3,0Z" />
      <path
         id="Path_4311"
         data-name="Path 4311"
         class="cls-1"
         d="M578.4,49h4.5a4.1,4.1,0,0,1,2.8.9,2.412,2.412,0,0,1,.7,1.7,2.346,2.346,0,0,1-1.7,2.4c1.3.4,2.3,1.1,2.3,2.6,0,1.8-1.5,2.9-3.9,2.9h-4.7V49Zm4.3,4.8c1.4,0,2.4-.7,2.4-1.9,0-1-.8-1.7-2.4-1.7h-3.2v3.6h3.2Zm.5,4.8c1.6,0,2.6-.7,2.6-1.9s-1-1.8-2.8-1.8h-3.4v3.7Z" />
      <path
         id="Path_4312"
         data-name="Path 4312"
         class="cls-1"
         d="M589.3,49h1.2v6.3l6.1-6.3h1.5l-4.5,4.6,4.7,5.9h-1.5l-4.1-5.1-2.3,2.3v2.9h-1.2V49Z" />
      <path
         id="Path_4313"
         data-name="Path 4313"
         class="cls-1"
         d="M600.2,49h1.2v8.8l6.3-8.8h1.2V59.6h-1.2V50.8l-6.3,8.8h-1.2V49Z" />
    </g>
  </g>
</svg>
