<svg xmlns="http://www.w3.org/2000/svg" viewBox="0 0 156.5 33.1">
  <defs>
    <style>
      .cls-1 {
        fill: #fff;
      }
    </style>
  </defs>
  <g id="Group_433" data-name="Group 433" transform="translate(-399.1 -1650.2)">
    <path id="Path_4316" data-name="Path 4316" class="cls-1" d="M402.6,1655.5h5a3.635,3.635,0,0,0-3.5-2.8,4.816,4.816,0,0,0-3.2,1.3l-1.5-1.9a6.593,6.593,0,0,1,4.7-1.9,6.3,6.3,0,0,1,6.4,6.3,6.212,6.212,0,0,1-6.3,6.3,6.335,6.335,0,0,1-5.1-2l1.7-1.8a4.6,4.6,0,0,0,3.4,1.4,3.54,3.54,0,0,0,3.5-2.9h-5A12.122,12.122,0,0,1,402.6,1655.5Z"/>
    <path id="Path_4317" data-name="Path 4317" class="cls-1" d="M412.9,1650.6h2.7v4.8h5v-4.8h2.7v12.2h-2.7v-4.9h-5v4.9h-2.7Z"/>
    <path id="Path_4318" data-name="Path 4318" class="cls-1" d="M435.3,1662.8h-9.1v-12.2h2.7v9.8h4.8v-9.8h2.6v9.8h1.4l-.3,5h-2.2v-2.6Z"/>
    <path id="Path_4319" data-name="Path 4319" class="cls-1" d="M450.2,1662.8h-2.6v-8l-5.3,8h-2.5v-12.2h2.6v8l5.4-8h2.5C450.2,1650.6,450.2,1662.8,450.2,1662.8Z"/>
    <path id="Path_4320" data-name="Path 4320" class="cls-1" d="M453.2,1650.6h2.7v5.3l5-5.3h3.2l-5,5.2,5.2,7H461l-3.8-5.2-1.4,1.5v3.7h-2.7l.1-12.2Z"/>
    <path id="Path_4321" data-name="Path 4321" class="cls-1" d="M476.3,1650.6v12.2h-2.7V1653h-3.5v.9c0,7.2-1.2,9-4,9a5.9,5.9,0,0,1-1.4-.2l.2-2.2c.1,0,.2.1.4.1,1.4,0,2.3-.9,2.3-7.5v-2.5Z"/>
    <path id="Path_4322" data-name="Path 4322" class="cls-1" d="M478.7,1656.7a6.5,6.5,0,1,1,6.5,6.3A6.321,6.321,0,0,1,478.7,1656.7Zm10.2,0a3.705,3.705,0,1,0-3.7,3.9A3.866,3.866,0,0,0,488.9,1656.7Z"/>
    <path id="Path_4323" data-name="Path 4323" class="cls-1" d="M494,1650.6h10.2v12.2h-2.7V1653h-4.8v9.8H494v-12.2Z"/>
    <path id="Path_4324" data-name="Path 4324" class="cls-1" d="M507.2,1650.6h9.2v2.4h-6.6v2.5h5.8v2.4h-5.8v2.6h6.6v2.4h-9.3l.1-12.3Z"/>
    <path id="Path_4325" data-name="Path 4325" class="cls-1" d="M517.6,1660.4h1.2c.9-2.1,1.3-4.2,1.3-8.4v-1.4H529v9.8h1.5l-.3,5h-2.3v-2.5h-7.7l-.2,2.5h-2.4v-5Zm5.1-7.4v1.3a14.789,14.789,0,0,1-1.1,6.1h4.7V1653Z"/>
    <path id="Path_4326" data-name="Path 4326" class="cls-1" d="M542.9,1662.8h-2.6v-8l-5.3,8h-2.5v-12.2h2.6v8l5.4-8H543l-.1,12.2Z"/>
    <path id="Path_4327" data-name="Path 4327" class="cls-1" d="M555.5,1662.8h-2.7v-3.9h-2.1l-2.6,3.9H545l3-4.4a3.857,3.857,0,0,1-2.6-3.8c0-2.5,1.8-4,4.6-4h5.6l-.1,12.2Zm-2.7-6.3V1653h-2.7c-1.3,0-2.1.6-2.1,1.8a1.775,1.775,0,0,0,2,1.7Z"/>
    <path id="Path_4328" data-name="Path 4328" class="cls-1" d="M400.1,1670.3h4.5a4.1,4.1,0,0,1,2.8.9,2.413,2.413,0,0,1,.7,1.7,2.346,2.346,0,0,1-1.7,2.4c1.3.4,2.3,1.1,2.3,2.6,0,1.8-1.5,2.9-3.9,2.9h-4.7v-10.5Zm4.3,4.8c1.4,0,2.4-.7,2.4-1.9,0-1-.8-1.7-2.4-1.7h-3.2v3.6Zm.5,4.8c1.6,0,2.6-.7,2.6-1.9s-1-1.8-2.8-1.8h-3.4v3.7h3.6Z"/>
    <path id="Path_4329" data-name="Path 4329" class="cls-1" d="M410.5,1675.6a5.4,5.4,0,0,1,5.4-5.5,5.338,5.338,0,0,1,5.4,5.5,5.4,5.4,0,0,1-5.4,5.5A5.338,5.338,0,0,1,410.5,1675.6Zm9.6,0a4.271,4.271,0,0,0-4.2-4.4,4.132,4.132,0,0,0-4.1,4.4,4.271,4.271,0,0,0,4.2,4.4A4.19,4.19,0,0,0,420.1,1675.6Z"/>
    <path id="Path_4330" data-name="Path 4330" class="cls-1" d="M422.2,1679.9h1.1c1-1.6,1.6-4.2,1.6-7.7v-1.9h6.9v9.5h1.4l-.2,3.5h-1v-2.4h-8.6l-.2,2.4h-1S422.2,1679.9,422.2,1679.9Zm8.4,0v-8.4H426v1.4a15.983,15.983,0,0,1-1.4,7Z"/>
    <path id="Path_4331" data-name="Path 4331" class="cls-1" d="M434.4,1675.6a5.4,5.4,0,0,1,5.4-5.5,5.338,5.338,0,0,1,5.4,5.5,5.4,5.4,0,0,1-5.4,5.5A5.338,5.338,0,0,1,434.4,1675.6Zm9.6,0a4.271,4.271,0,0,0-4.2-4.4,4.132,4.132,0,0,0-4.1,4.4,4.271,4.271,0,0,0,4.2,4.4A4.19,4.19,0,0,0,444,1675.6Z"/>
    <path id="Path_4332" data-name="Path 4332" class="cls-1" d="M447.8,1670.3h8.3v10.6h-1.2v-9.5H449v9.5h-1.2v-10.6Z"/>
    <path id="Path_4333" data-name="Path 4333" class="cls-1" d="M458.6,1675.6a5.4,5.4,0,0,1,5.4-5.5,5.338,5.338,0,0,1,5.4,5.5,5.4,5.4,0,0,1-5.4,5.5A5.338,5.338,0,0,1,458.6,1675.6Zm9.5,0a4.271,4.271,0,0,0-4.2-4.4,4.132,4.132,0,0,0-4.1,4.4,4.271,4.271,0,0,0,4.2,4.4A4.19,4.19,0,0,0,468.1,1675.6Z"/>
    <path id="Path_4334" data-name="Path 4334" class="cls-1" d="M470.3,1679.9h1.1c1-1.6,1.6-4.2,1.6-7.7v-1.9h6.9v9.5h1.4l-.2,3.5h-1v-2.4h-8.6l-.2,2.4h-1v-3.4Zm8.4,0v-8.4h-4.6v1.4a15.983,15.983,0,0,1-1.4,7Z"/>
    <path id="Path_4335" data-name="Path 4335" class="cls-1" d="M483,1670.3h6.8v1.1h-5.6v9.5H483Z"/>
    <path id="Path_4336" data-name="Path 4336" class="cls-1" d="M490.7,1675.6a5.4,5.4,0,0,1,5.4-5.5,5.338,5.338,0,0,1,5.4,5.5,5.4,5.4,0,0,1-5.4,5.5A5.338,5.338,0,0,1,490.7,1675.6Zm9.5,0a4.271,4.271,0,0,0-4.2-4.4,4.132,4.132,0,0,0-4.1,4.4,4.271,4.271,0,0,0,4.2,4.4A4.19,4.19,0,0,0,500.2,1675.6Z"/>
    <path id="Path_4337" data-name="Path 4337" class="cls-1" d="M506,1671.4h-3.6v-1.1h8.3v1.1h-3.5v9.5H506v-9.5Z"/>
    <path id="Path_4338" data-name="Path 4338" class="cls-1" d="M511.8,1675.6a5.4,5.4,0,0,1,5.4-5.5,5.338,5.338,0,0,1,5.4,5.5,5.4,5.4,0,0,1-5.4,5.5A5.338,5.338,0,0,1,511.8,1675.6Zm9.5,0a4.271,4.271,0,0,0-4.2-4.4,4.132,4.132,0,0,0-4.1,4.4,4.271,4.271,0,0,0,4.2,4.4A4.19,4.19,0,0,0,521.3,1675.6Z"/>
    <path id="Path_4339" data-name="Path 4339" class="cls-1" d="M525.1,1670.3h4.5a4.1,4.1,0,0,1,2.8.9,2.412,2.412,0,0,1,.7,1.7,2.346,2.346,0,0,1-1.7,2.4c1.3.4,2.3,1.1,2.3,2.6,0,1.8-1.5,2.9-3.9,2.9h-4.7v-10.5Zm4.3,4.8c1.4,0,2.4-.7,2.4-1.9,0-1-.8-1.7-2.4-1.7h-3.2v3.6Zm.4,4.8c1.6,0,2.6-.7,2.6-1.9s-1-1.8-2.8-1.8h-3.4v3.7h3.6Z"/>
    <path id="Path_4340" data-name="Path 4340" class="cls-1" d="M536,1670.3h1.2v6.3l6.1-6.3h1.5l-4.5,4.6,4.7,5.9h-1.5l-4.1-5.1-2.3,2.3v2.9H536v-10.6Z"/>
    <path id="Path_4341" data-name="Path 4341" class="cls-1" d="M546.8,1670.3H548v8.8l6.3-8.8h1.2v10.6h-1.2v-8.8l-6.3,8.8h-1.2v-10.6Z"/>
  </g>
</svg>
