<svg xmlns="http://www.w3.org/2000/svg" viewBox="0 0 24.5 24.5">
  <defs>
    <style>
      .cls-1 {
        fill: #fff;
      }
    </style>
  </defs>
  <path id="Path_4261" data-name="Path 4261" class="cls-1" d="M1899.9,286a12.243,12.243,0,0,0-10.1,19.1l-.6,3c-.1.5.2.9.9.9l3-.6a12.741,12.741,0,0,0,6.9,2.1,12.25,12.25,0,0,0-.1-24.5Zm0,23.3a10.961,10.961,0,0,1-6.5-2.1c-.2-.1-.2-.1-.3-.1l-2.8.6.6-2.8a.367.367,0,0,0-.1-.3,11.354,11.354,0,0,1-2-6.5,11.1,11.1,0,1,1,11.1,11.2Zm4.3-13.4a4.324,4.324,0,0,1-3,4.2.96.96,0,0,0-.7.9v1a.6.6,0,1,1-1.2,0v-1a2.175,2.175,0,0,1,1.4-2,3.21,3.21,0,0,0,2.3-3.1,3.254,3.254,0,0,0-3.1-3.1,3.174,3.174,0,0,0-3.3,3.2.6.6,0,1,1-1.2,0,4.354,4.354,0,0,1,4.4-4.3A4.4,4.4,0,0,1,1904.2,295.9Zm-3.5,8.2a.7.7,0,1,1-.7-.7A.684.684,0,0,1,1900.7,304.1Z" transform="translate(-1887.7 -286)"/>
</svg>
