<svg xmlns="http://www.w3.org/2000/svg" viewBox="0 0 16.7 25.2">
  <defs>
    <style>
      .cls-1 {
        fill: #1d71b8;
      }
    </style>
  </defs>
  <path id="Path_4279" data-name="Path 4279" class="cls-1" d="M1667.4,156.4c4.4,0,8.6,2,8.6,6.8,0,4.4-5.1,6.1-6.2,7.7-.8,1.2-.5,2.9-2.8,2.9a2.173,2.173,0,0,1-2.2-2.3c0-4,5.9-5,5.9-8.3,0-1.8-1.2-2.9-3.3-2.9-4.4,0-2.7,4.5-5.9,4.5a2.019,2.019,0,0,1-2.2-2.1C1659.5,159.4,1663.3,156.4,1667.4,156.4Zm-.1,19.6a2.8,2.8,0,1,1-2.8,2.8A2.8,2.8,0,0,1,1667.3,176Z" transform="translate(-1659.3 -156.4)"/>
</svg>
