<svg xmlns="http://www.w3.org/2000/svg" viewBox="0 0 18.025 11.9">
  <defs>
    <style>
      .cls-1 {
        fill: #fff;
      }
    </style>
  </defs>
  <path id="Path_4247" data-name="Path 4247" class="cls-1" d="M1346.3,329.4a3.553,3.553,0,0,0-1,.2,2.354,2.354,0,0,1,.2.8,1.71,1.71,0,0,1-1.8,1.7,1.884,1.884,0,0,1-.8-.2,3.473,3.473,0,0,0,2.4,4.3,3.431,3.431,0,0,0,4.3-2.4,3.473,3.473,0,0,0-2.4-4.3A2.482,2.482,0,0,0,1346.3,329.4Zm8.9,3a10.062,10.062,0,0,0-8.9-5.5,9.948,9.948,0,0,0-8.9,5.5,1.388,1.388,0,0,0,0,.9,10.062,10.062,0,0,0,8.9,5.5,9.948,9.948,0,0,0,8.9-5.5A.75.75,0,0,0,1355.2,332.4Zm-8.9,4.9a8.631,8.631,0,0,1-7.5-4.5,8.513,8.513,0,0,1,7.5-4.5,8.631,8.631,0,0,1,7.5,4.5A8.631,8.631,0,0,1,1346.3,337.3Z" transform="translate(-1337.325 -326.9)"/>
</svg>
