<?xml version="1.0" encoding="UTF-8" standalone="no"?>
<svg
   xmlns:dc="http://purl.org/dc/elements/1.1/"
   xmlns:cc="http://creativecommons.org/ns#"
   xmlns:rdf="http://www.w3.org/1999/02/22-rdf-syntax-ns#"
   xmlns:svg="http://www.w3.org/2000/svg"
   xmlns="http://www.w3.org/2000/svg"
   xmlns:sodipodi="http://sodipodi.sourceforge.net/DTD/sodipodi-0.dtd"
   xmlns:inkscape="http://www.inkscape.org/namespaces/inkscape"
   viewBox="0 0 26 29.7"
   version="1.1"
   id="svg26"
   sodipodi:docname="Path 4277.svg"
   inkscape:version="0.92.4 (5da689c313, 2019-01-14)">
  <metadata
     id="metadata30">
    <rdf:RDF>
      <cc:Work
         rdf:about="">
        <dc:format>image/svg+xml</dc:format>
        <dc:type
           rdf:resource="http://purl.org/dc/dcmitype/StillImage" />
        <dc:title></dc:title>
      </cc:Work>
    </rdf:RDF>
  </metadata>
  <sodipodi:namedview
     pagecolor="#ffffff"
     bordercolor="#666666"
     borderopacity="1"
     objecttolerance="10"
     gridtolerance="10"
     guidetolerance="10"
     inkscape:pageopacity="0"
     inkscape:pageshadow="2"
     inkscape:window-width="1680"
     inkscape:window-height="987"
     id="namedview28"
     showgrid="false"
     inkscape:pagecheckerboard="true"
     inkscape:zoom="26.531986"
     inkscape:cx="13"
     inkscape:cy="14.85"
     inkscape:window-x="-8"
     inkscape:window-y="-8"
     inkscape:window-maximized="1"
     inkscape:current-layer="svg26" />
  <defs
     id="defs23">
    <style
       id="style21">
      .cls-1 {
        fill: #fff;
      }
    </style>
  </defs>
  <path
     id="Path_4277"
     data-name="Path 4277"
     class="cls-1"
     d="M1499.6,47.9c-1.7,0-2.5.9-5.2.9s-3.5-.9-5.2-.9a7.81,7.81,0,0,0-7.8,7.8v1.5a2.8,2.8,0,0,0,2.8,2.8h20.4a2.8,2.8,0,0,0,2.8-2.8V55.7A7.81,7.81,0,0,0,1499.6,47.9Zm5,9.2h-20.4V55.6a4.951,4.951,0,0,1,5-5c.8,0,2.2.9,5.2.9s4.3-.9,5.2-.9a4.951,4.951,0,0,1,5,5v1.5Zm-10.2-10.2a8.3,8.3,0,1,0-8.3-8.3A8.28,8.28,0,0,0,1494.4,46.9Zm0-13.9a5.6,5.6,0,1,1-5.6,5.6A5.656,5.656,0,0,1,1494.4,33Z"
     transform="translate(-1481.4 -30.3)" />
</svg>
