<svg xmlns="http://www.w3.org/2000/svg" viewBox="0 0 45 41.37">
  <defs>
    <style>
      .cls-1 {
        fill: #fff;
      }

      .cls-2 {
        fill: #30aae2;
      }
    </style>
  </defs>
  <g id="Group_432" data-name="Group 432" transform="translate(-454.2 -1597.73)">
    <path id="Path_4314" data-name="Path 4314" class="cls-1" d="M494.5,1602.2v-4l-.4-.1c-.4-.1-9.6-1.3-15.8,3.3a14.72,14.72,0,0,0-2.2,2.2l-.1.1v5.9h0c-.3.3-6,8.1-6,11.5a6.4,6.4,0,1,0,12.8,0c0-3-4.6-9.6-5.7-11.2h0V1604a16.946,16.946,0,0,1,1.9-1.9c5.1-3.8,12.7-3.3,14.6-3.2l.3,29.9c-2.5-.7-10.9-2.6-17.4,2.1-6.5-4.7-14.9-2.8-17.4-2.1l.3-29.9c1.9-.2,9.5-.6,14.6,3.2l.6-.9c-6.2-4.6-15.4-3.3-15.8-3.3l-.4.1v4h-4.2v32.8h17.9a4.67,4.67,0,0,0,4.6,4.3,4.532,4.532,0,0,0,4.6-4.3h17.9V1602h-4.7Zm-12.9,19a5.3,5.3,0,1,1-10.6,0c0-2.3,3.5-7.7,5.3-10.2C478.1,1613.5,481.6,1618.9,481.6,1621.2Zm16.2,12.8H479.9v.7a3.7,3.7,0,0,1-7.4,0v-.7H454.6v-30.9h3.3l-.2,27.3.7-.3c.1,0,10.4-3.6,17.6,2l.2.2.2-.2c7.1-5.6,17.5-2.1,17.6-2l.7.3-.2-27.3h3.3V1634Z"/>
    <path id="Path_4315" data-name="Path 4315" class="cls-2" d="M480.9,1621.2a4.6,4.6,0,0,1-9.2,0c0-2,3.1-6.7,4.6-8.9C477.9,1614.5,480.9,1619.2,480.9,1621.2Z"/>
  </g>
</svg>
