<svg xmlns="http://www.w3.org/2000/svg" viewBox="0 0 32.9 32.959">
  <defs>
    <style>
      .cls-1 {
        fill: #1d71b8;
      }
    </style>
  </defs>
  <g id="Group_414" data-name="Group 414" transform="translate(-1353.7 -428.741)">
    <path id="Path_4271" data-name="Path 4271" class="cls-1" d="M1386.6,430.4v29.3a1.793,1.793,0,0,1-1.8,1.8h-8.4V448.8h4.3l.6-5h-4.9v-3.2c0-1.4.4-2.4,2.5-2.4h2.6v-4.4a26.869,26.869,0,0,0-3.8-.2c-3.8,0-6.4,2.3-6.4,6.6v3.7H1367v5h4.3v12.8h-15.8a1.793,1.793,0,0,1-1.8-1.8V430.6a1.793,1.793,0,0,1,1.8-1.8h29.3A1.488,1.488,0,0,1,1386.6,430.4Z"/>
  </g>
</svg>
