<svg xmlns="http://www.w3.org/2000/svg" viewBox="0 0 17.4 17.6">
  <defs>
    <style>
      .cls-1 {
        fill: #fff;
      }
    </style>
  </defs>
  <g id="Group_444" data-name="Group 444" transform="translate(-1365.8 -1663.8)">
    <path id="Path_4349" data-name="Path 4349" class="cls-1" d="M1383.2,1664.9v15.5a1,1,0,0,1-1,1h-4.4v-6.8h2.3l.3-2.6h-2.6v-1.7c0-.8.2-1.3,1.3-1.3h1.4v-2.4c-.2,0-1.1-.1-2-.1a3.18,3.18,0,0,0-3.4,3.5v1.9h-2.3v2.6h2.3v6.8h-8.3a1,1,0,0,1-1-1v-15.5a1,1,0,0,1,1-1h15.5A1.088,1.088,0,0,1,1383.2,1664.9Z"/>
  </g>
</svg>
