<svg xmlns="http://www.w3.org/2000/svg" viewBox="0 0 33.025 33.1">
  <defs>
    <style>
      .cls-1 {
        fill: #1d71b8;
      }
    </style>
  </defs>
  <g id="Group_415" data-name="Group 415" transform="translate(-1479.05 -385.15)">
    <path id="Path_4272" data-name="Path 4272" class="cls-1" d="M1495.6,393.3a8.4,8.4,0,1,0,8.4,8.4A8.386,8.386,0,0,0,1495.6,393.3Zm0,13.9a5.5,5.5,0,1,1,5.5-5.5,5.549,5.549,0,0,1-5.5,5.5Zm10.8-14.3a2,2,0,1,1-2-2A2.006,2.006,0,0,1,1506.4,392.9Zm5.6,2a9.419,9.419,0,0,0-2.7-6.9c-1.9-1.9-4.3-2.5-6.9-2.7-2.7-.2-10.9-.2-13.6,0a9.419,9.419,0,0,0-6.9,2.7,10.494,10.494,0,0,0-2.7,6.9c-.2,2.7-.2,10.9,0,13.6a9.419,9.419,0,0,0,2.7,6.9,10.494,10.494,0,0,0,6.9,2.7c2.7.2,10.9.2,13.6,0a9.419,9.419,0,0,0,6.9-2.7c1.9-1.9,2.5-4.3,2.7-6.9.1-2.7.1-10.9,0-13.6Zm-3.5,16.5a5.875,5.875,0,0,1-3.1,3.1c-2.2.9-7.3.7-9.7.7s-7.5.2-9.7-.7a5.875,5.875,0,0,1-3.1-3.1c-.9-2.2-.7-7.3-.7-9.7s-.2-7.5.7-9.7a5.875,5.875,0,0,1,3.1-3.1c2.2-.9,7.3-.7,9.7-.7s7.5-.2,9.7.7a5.875,5.875,0,0,1,3.1,3.1c.9,2.2.7,7.3.7,9.7S1509.3,409.2,1508.5,411.4Z"/>
  </g>
</svg>
