<svg xmlns="http://www.w3.org/2000/svg" viewBox="0 0 18.95 18.95">
  <defs>
    <style>
      .cls-1 {
        fill: #fff;
      }
    </style>
  </defs>
  <g id="Group_445" data-name="Group 445" transform="translate(-1399.725 -1662.425)">
    <path id="Path_4350" data-name="Path 4350" class="cls-1" d="M1409.2,1667a4.8,4.8,0,0,0-4.8,4.8,4.8,4.8,0,0,0,9.6,0A4.8,4.8,0,0,0,1409.2,1667Zm0,8a3.222,3.222,0,0,1-3.2-3.2,3.2,3.2,0,0,1,6.4,0,3.222,3.222,0,0,1-3.2,3.2Zm6.2-8.2a1.1,1.1,0,1,1-1.1-1.1A1.11,1.11,0,0,1,1415.4,1666.8Zm3.2,1.2a5.851,5.851,0,0,0-1.5-4,5.271,5.271,0,0,0-4-1.5c-1.6-.1-6.2-.1-7.8,0a5.851,5.851,0,0,0-4,1.5,5.271,5.271,0,0,0-1.5,4c-.1,1.6-.1,6.2,0,7.8a5.851,5.851,0,0,0,1.5,4,5.271,5.271,0,0,0,4,1.5c1.6.1,6.2.1,7.8,0a5.851,5.851,0,0,0,4-1.5,5.271,5.271,0,0,0,1.5-4c.1-1.6.1-6.2,0-7.8Zm-2,9.5a3.187,3.187,0,0,1-1.8,1.8c-1.2.5-4.2.4-5.6.4s-4.3.1-5.6-.4a3.187,3.187,0,0,1-1.8-1.8c-.5-1.2-.4-4.2-.4-5.6s-.1-4.3.4-5.6a3.187,3.187,0,0,1,1.8-1.8c1.2-.5,4.2-.4,5.6-.4s4.3-.1,5.6.4a3.187,3.187,0,0,1,1.8,1.8c.5,1.2.4,4.2.4,5.6C1416.9,1673.3,1417,1676.2,1416.6,1677.5Z"/>
  </g>
</svg>
