<svg xmlns="http://www.w3.org/2000/svg" viewBox="0 0 32.84 41.001">
  <defs>
    <style>
      .cls-1 {
        fill: #1d71b8;
      }
    </style>
  </defs>
  <path id="Path_4269" data-name="Path 4269" class="cls-1" d="M1450.3,465.4c-5.4-2.3-10.3-4.4-15.1-6.6a3.319,3.319,0,0,1-1.6-1.7c-5-6.7-9.9-13.4-14.9-20a5.12,5.12,0,0,1-.3-6.3,13.535,13.535,0,0,1,5.5-5.1c4.3-2.2,6.4-1.7,9.2,2.2,4.6,6.1,9.1,12.3,13.8,18.4a8.41,8.41,0,0,1,1.7,4C1449,455.3,1449.6,460.1,1450.3,465.4Zm-9.2-15.9h.7c1.1-.2,2.4,0,2.9-1.1.4-.9-.7-1.6-1.2-2.4-2.5-3.4-4.9-6.7-7.4-10-2.3-3-2.8-3.1-6.1-1.2-1.3.8-1.6,1.4-.6,2.7,2.6,3.3,5.1,6.6,7.5,10A4.775,4.775,0,0,0,1441.1,449.5Zm-3.7,1.7a4.713,4.713,0,0,0-.6-2.4c-2.8-3.7-5.5-7.4-8.3-11.2-.3-.4-.5-.9-1.3-.6a4.027,4.027,0,0,0-1.5,5.7c2.6,3.5,5.2,7.1,7.9,10.6.7.9,1.2,2.7,2.3,2.4,1.4-.4,1.4-2.3,1.5-3.7Zm9.8,6.8a53.925,53.925,0,0,1-.8-5.6c-.2-2.1-.5-3.3-3-2.2a9.877,9.877,0,0,1-3,.3c-3.2.3-1.1,3.6-2.7,4.9-.4.4-1,1.2-.2,1.8a5.577,5.577,0,0,0,.8.5c1.9.8,3.7,1.7,5.6,2.5A2.323,2.323,0,0,0,1447.2,458Zm-14.7-26.7c-.6-.9-.9-2.2-2.4-2.2-2.5-.1-8.2,4.5-8.7,7-.2,1.2.7,1.9,1.3,2.6.5.5.8-.1,1.1-.5a13.735,13.735,0,0,1,7.7-5.9C1431.9,432.1,1432.4,432.1,1432.5,431.3Zm-4.3-3.8c-4.4,0-7.9,2.9-7.9,6.4C1422.1,430.9,1424.7,429,1428.2,427.5Z" transform="translate(-1417.46 -424.399)"/>
</svg>
