<svg xmlns="http://www.w3.org/2000/svg" viewBox="0 0 15.288 18.799">
  <defs>
    <style>
      .cls-1 {
        fill: #fff;
      }
    </style>
  </defs>
  <path id="Path_4347" data-name="Path 4347" class="cls-1" d="M1451.5,1681.3c-2.5-1.1-4.7-2.1-7-3-.4-.2-.5-.5-.8-.8-2.3-3.1-4.6-6.2-6.9-9.2a2.414,2.414,0,0,1-.2-2.9,6.141,6.141,0,0,1,2.5-2.3c2-1,3-.8,4.3,1,2.1,2.8,4.2,5.7,6.4,8.5a4.553,4.553,0,0,1,.8,1.9C1450.9,1676.7,1451.2,1678.9,1451.5,1681.3Zm-4.3-7.3h.3c.5-.1,1.1,0,1.4-.5.2-.4-.3-.8-.6-1.1-1.1-1.6-2.3-3.1-3.4-4.6-1-1.4-1.3-1.4-2.8-.6-.6.4-.7.6-.3,1.2,1.2,1.5,2.3,3.1,3.4,4.6A2.46,2.46,0,0,0,1447.2,1674Zm-1.7.8a1.675,1.675,0,0,0-.3-1.1c-1.3-1.7-2.5-3.4-3.8-5.2a.443.443,0,0,0-.6-.3,1.848,1.848,0,0,0-.7,2.6c1.2,1.6,2.4,3.3,3.7,4.9.3.4.6,1.2,1,1.1.6-.2.7-1,.7-1.7T1445.5,1674.8Zm4.5,3.1c-.1-.9-.3-1.7-.4-2.6s-.2-1.5-1.4-1a3.211,3.211,0,0,1-1.4.1c-1.5.2-.5,1.7-1.2,2.3a.619.619,0,0,0-.1.9c.1.1.2.1.4.2.9.4,1.7.8,2.6,1.2A1.078,1.078,0,0,0,1450,1677.9Zm-6.8-12.3c-.3-.4-.4-1-1.1-1-1.2,0-3.8,2.1-4,3.2-.1.6.3.9.6,1.2.2.2.4,0,.5-.2a6.135,6.135,0,0,1,3.6-2.7C1443,1665.9,1443.2,1665.9,1443.2,1665.6Zm-2-1.8c-2,0-3.7,1.4-3.7,3A7.756,7.756,0,0,1,1441.2,1663.8Z" transform="translate(-1436.212 -1662.501)"/>
</svg>
