<svg xmlns="http://www.w3.org/2000/svg" viewBox="0 0 32.901 32.9">
  <defs>
    <style>
      .cls-1 {
        fill: #1d71b8;
      }
    </style>
  </defs>
  <g id="Group_413" data-name="Group 413" transform="translate(-1479.1 -428.6)">
    <path id="Path_4265" data-name="Path 4265" class="cls-1" d="M1495.6,461.5a16.45,16.45,0,1,1,16.4-16.4A16.346,16.346,0,0,1,1495.6,461.5Zm-11.2-15.7a6.932,6.932,0,0,0,2.9,5.8,12.88,12.88,0,0,0,8,2.7,13.43,13.43,0,0,0,8.5-2.4c2.3-1.7,3.6-3.8,3.2-6.8-.1-.4.2-.5.4-.7a2.78,2.78,0,0,0,.5-4,2.937,2.937,0,0,0-4-.6.483.483,0,0,1-.7,0,12.465,12.465,0,0,0-5.6-1.9c-.4,0-.6-.1-.4-.6.4-1,.7-2,1-3,.1-.5.4-.5.8-.4a17.415,17.415,0,0,0,2.2.5,1.4,1.4,0,0,1,1.2.9,2.223,2.223,0,0,0,3.2.9,2.164,2.164,0,0,0,.6-3.1,2.274,2.274,0,0,0-3.3-.3.987.987,0,0,1-1,.2,22.074,22.074,0,0,1-3.5-.8c-.8-.2-1.1.1-1.3.8-.4,1.4-.9,2.7-1.3,4.1a.8.8,0,0,1-.9.7,12.614,12.614,0,0,0-6,1.7,1.506,1.506,0,0,1-1.8.1,2.854,2.854,0,0,0-3.7.9,2.886,2.886,0,0,0,.3,3.7C1484.3,444.7,1484.6,445.2,1484.4,445.8Z"/>
    <path id="Path_4266" data-name="Path 4266" class="cls-1" d="M1495.7,451.3a6.8,6.8,0,0,1-3.9-1.1c-.4-.3-.7-.6-.4-1.1s.7-.3,1.1,0a5.739,5.739,0,0,0,6.4,0c.4-.2.8-.4,1.1,0,.3.5,0,.8-.4,1.1A7.489,7.489,0,0,1,1495.7,451.3Z"/>
    <path id="Path_4267" data-name="Path 4267" class="cls-1" d="M1490.1,444.5a1.7,1.7,0,0,1,1.8-1.6,1.752,1.752,0,0,1,1.7,1.7,1.774,1.774,0,0,1-1.8,1.7A1.6,1.6,0,0,1,1490.1,444.5Z"/>
    <path id="Path_4268" data-name="Path 4268" class="cls-1" d="M1499.7,446.3a1.627,1.627,0,0,1-1.7-1.7,1.685,1.685,0,0,1,1.7-1.7,1.627,1.627,0,0,1,1.7,1.7A1.685,1.685,0,0,1,1499.7,446.3Z"/>
  </g>
</svg>
