<svg xmlns="http://www.w3.org/2000/svg" viewBox="0 0 18.2 18.2">
  <defs>
    <style>
      .cls-1 {
        fill: #fff;
      }
    </style>
  </defs>
  <g id="Group_443" data-name="Group 443" transform="translate(-1469.5 -1663.1)">
    <path id="Path_4343" data-name="Path 4343" class="cls-1" d="M1478.6,1681.3a9.1,9.1,0,1,1,9.1-9.1A9.133,9.133,0,0,1,1478.6,1681.3Zm-6.3-8.7a3.886,3.886,0,0,0,1.6,3.2,8.079,8.079,0,0,0,9.1.2,3.72,3.72,0,0,0,1.8-3.7.52.52,0,0,1,.2-.4,1.57,1.57,0,1,0-1.9-2.5c-.2.1-.2.1-.4,0a7.076,7.076,0,0,0-3.1-1c-.2,0-.3-.1-.2-.3a10.929,10.929,0,0,0,.5-1.7c.1-.3.2-.3.4-.2l1.2.3a.634.634,0,0,1,.6.5,1.234,1.234,0,0,0,1.8.5,1.165,1.165,0,0,0,.3-1.7,1.2,1.2,0,0,0-1.8-.2.471.471,0,0,1-.6.1,12.848,12.848,0,0,1-1.9-.4.529.529,0,0,0-.7.4c-.2.8-.5,1.5-.7,2.2-.1.3-.2.4-.5.4a6.388,6.388,0,0,0-3.3,1c-.4.2-.6.3-1,.1a1.456,1.456,0,0,0-2,.5,1.528,1.528,0,0,0,.2,2A.505.505,0,0,1,1472.3,1672.6Z"/>
    <path id="Path_4344" data-name="Path 4344" class="cls-1" d="M1478.6,1675.7a3.7,3.7,0,0,1-2.1-.6c-.2-.1-.4-.3-.2-.6s.4-.2.6,0a3.178,3.178,0,0,0,3.5,0c.2-.1.4-.2.6,0,.2.3,0,.4-.2.6A4.752,4.752,0,0,1,1478.6,1675.7Z"/>
    <path id="Path_4345" data-name="Path 4345" class="cls-1" d="M1475.5,1671.9a.951.951,0,1,1,1.9.1.987.987,0,0,1-1,.9C1475.8,1672.9,1475.5,1672.5,1475.5,1671.9Z"/>
    <path id="Path_4346" data-name="Path 4346" class="cls-1" d="M1480.8,1672.9a.839.839,0,0,1-.9-.9.9.9,0,0,1,.9-.9,1,1,0,0,1,1,1A1.077,1.077,0,0,1,1480.8,1672.9Z"/>
  </g>
</svg>
