<svg xmlns="http://www.w3.org/2000/svg" viewBox="0 0 33 26.6">
  <defs>
    <style>
      .cls-1 {
        fill: #1d71b8;
      }
    </style>
  </defs>
  <path id="Path_4270" data-name="Path 4270" class="cls-1" d="M1446.9,395v.9c0,8.9-6.8,19.2-19.2,19.2a19.454,19.454,0,0,1-10.4-3,8.6,8.6,0,0,0,1.6.1,13.562,13.562,0,0,0,8.4-2.9,6.693,6.693,0,0,1-6.3-4.7,5.283,5.283,0,0,0,1.3.1,11.02,11.02,0,0,0,1.8-.2,6.669,6.669,0,0,1-5.4-6.6v-.1a7.5,7.5,0,0,0,3.1.9,6.781,6.781,0,0,1-3-5.6,6.4,6.4,0,0,1,.9-3.4,19.157,19.157,0,0,0,13.9,7.1,7.721,7.721,0,0,1-.2-1.5,6.807,6.807,0,0,1,6.8-6.8,6.715,6.715,0,0,1,4.9,2.1,15.863,15.863,0,0,0,4.3-1.6,6.513,6.513,0,0,1-3,3.7,12.439,12.439,0,0,0,3.9-1,21.418,21.418,0,0,1-3.4,3.3Z" transform="translate(-1417.3 -388.5)"/>
</svg>
