<svg xmlns="http://www.w3.org/2000/svg" viewBox="0 0 19.6 15.7">
  <defs>
    <style>
      .cls-1 {
        fill: #fff;
      }
    </style>
  </defs>
  <path id="Path_4348" data-name="Path 4348" class="cls-1" d="M1347.6,1669.4v.5a11.3,11.3,0,0,1-11.4,11.4,11.837,11.837,0,0,1-6.2-1.8h1a7.955,7.955,0,0,0,5-1.7,4.088,4.088,0,0,1-3.8-2.8c.2,0,.5.1.8.1a4.1,4.1,0,0,0,1.1-.1,4.06,4.06,0,0,1-3.2-3.9h0a3.742,3.742,0,0,0,1.8.5,3.994,3.994,0,0,1-1.8-3.3,4.551,4.551,0,0,1,.5-2,11.787,11.787,0,0,0,8.3,4.2,2.769,2.769,0,0,1-.1-.9,4.012,4.012,0,0,1,4-4,3.775,3.775,0,0,1,2.9,1.3,8.245,8.245,0,0,0,2.6-1,3.886,3.886,0,0,1-1.8,2.2,8.651,8.651,0,0,0,2.3-.6,12.272,12.272,0,0,1-2,1.9Z" transform="translate(-1330 -1665.6)"/>
</svg>
