<svg xmlns="http://www.w3.org/2000/svg" viewBox="0 0 38.376 23.1">
  <defs>
    <style>
      .cls-1 {
        fill: #1d71b8;
      }
    </style>
  </defs>
  <g id="Group_416" data-name="Group 416" transform="translate(-1350.8 -390.3)">
    <path id="Path_4273" data-name="Path 4273" class="cls-1" d="M1388.5,391.8c.3-.9,0-1.5-1.3-1.5H1383a1.724,1.724,0,0,0-1.8,1.2,33.613,33.613,0,0,1-5.2,8.6c-1,1-1.4,1.3-2,1.3-.3,0-.7-.3-.7-1.2v-8.3c0-1.1-.3-1.5-1.2-1.5h-6.6a1.029,1.029,0,0,0-1.1,1c0,1,1.5,1.2,1.7,4.1v6.2c0,1.4-.2,1.6-.8,1.6-1.4,0-4.9-5.2-7-11.2-.4-1.2-.8-1.6-1.9-1.6h-4.2c-1.2,0-1.4.6-1.4,1.2,0,1.1,1.4,6.6,6.6,14,3.5,5,8.4,7.7,12.8,7.7,2.7,0,3-.6,3-1.6,0-4.8-.2-5.2,1.1-5.2.6,0,1.7.3,4.2,2.7,2.9,2.9,3.3,4.1,4.9,4.1h4.2c1.2,0,1.8-.6,1.5-1.8-.8-2.5-6.2-7.6-6.4-8-.6-.8-.4-1.2,0-1.9.1-.2,5.3-7.4,5.8-9.9Z"/>
  </g>
</svg>
