<svg xmlns="http://www.w3.org/2000/svg" viewBox="0 0 24.06 14.3">
  <defs>
    <style>
      .cls-1 {
        fill: #fff;
      }
    </style>
  </defs>
  <g id="Group_446" data-name="Group 446" transform="translate(-1293.2 -1666.9)">
    <path id="Path_4351" data-name="Path 4351" class="cls-1" d="M1316.6,1668c.2-.6,0-1-.8-1h-2.6a1.062,1.062,0,0,0-1.1.7,20.86,20.86,0,0,1-3.2,5.4c-.6.6-.9.8-1.2.8-.2,0-.4-.2-.4-.8v-5.2c0-.7-.2-1-.7-1h-4.1a.669.669,0,0,0-.7.6c0,.6.9.8,1,2.6v3.9c0,.8-.2,1-.5,1-.9,0-3.1-3.3-4.4-7-.3-.7-.5-1-1.2-1h-2.6c-.8,0-.9.4-.9.7,0,.7.9,4.2,4.2,8.7,2.2,3.1,5.2,4.8,8,4.8,1.7,0,1.9-.4,1.9-1,0-3-.2-3.3.7-3.3.4,0,1.1.2,2.6,1.7,1.8,1.8,2.1,2.6,3.1,2.6h2.6c.8,0,1.1-.4.9-1.1-.5-1.6-3.9-4.8-4-5-.4-.5-.3-.7,0-1.2-.1.2,3.1-4.4,3.4-5.9Z"/>
  </g>
</svg>
